<svg xmlns="http://www.w3.org/2000/svg" viewBox="0 0 1080 1080"><defs><style>.cls-1,.cls-2{fill-rule:evenodd;}.cls-2,.cls-3{fill:none;stroke:#000;stroke-miterlimit:10;stroke-width:24px;}</style></defs><g id="iso-std"><path class="cls-1" d="M794.88,540,972.44,717.68a60.21,60.21,0,0,1,0,84.93L802.65,972.41a60,60,0,0,1-84.86,0L540.22,794.71l-177.5,177.7a60,60,0,0,1-84.86,0L108.07,802.61c-23.46-23.49-24.39-60.57-.93-84L285.63,540,108.1,362.36a60.05,60.05,0,0,1,0-84.94L277.89,107.6a59.94,59.94,0,0,1,84.86,0l177.5,177.6L717.82,107.6a59.94,59.94,0,0,1,84.86,0L972.47,277.42a60.22,60.22,0,0,1,0,84.94L794.88,540ZM908.79,298.66,781.44,171.29a30,30,0,0,0-42.45,0L582.64,327.64a60,60,0,0,1-84.86,0L341.51,171.29a29.94,29.94,0,0,0-42.44,0L171.72,298.66a30.06,30.06,0,0,0,0,42.45L328.05,497.57h0a59.92,59.92,0,0,1,0,84.86h0L171.72,738.88a30.11,30.11,0,0,0,0,42.49L299.1,908.72a30,30,0,0,0,42.44,0L497.81,752.27a60.07,60.07,0,0,1,84.86,0L739,908.72a30,30,0,0,0,42.45,0L908.82,781.37a30.09,30.09,0,0,0,0-42.48L752.46,582.44h0a60,60,0,0,1,0-84.87h0L908.82,341.12a30.1,30.1,0,0,0,0-42.46Z"/><path class="cls-2" d="M811.08,271a1.68,1.68,0,0,1,2.06,2.06l-18.52,69.12L776.1,411.3a1.68,1.68,0,0,1-2.81.75l-50.6-50.6-50.6-50.6a1.68,1.68,0,0,1,.75-2.82L742,289.51Z"/><circle class="cls-3" cx="744.23" cy="741.96" r="70.8"/></g></svg>