<svg xmlns="http://www.w3.org/2000/svg" viewBox="0 0 1080 1080"><defs><style>.cls-1{fill:#fff;}.cls-1,.cls-2{fill-rule:evenodd;}.cls-2,.cls-3{fill:none;stroke:#fff;stroke-miterlimit:10;stroke-width:24px;}</style></defs><g id="iso-white-bg-black"><rect width="1080" height="1080"/><path class="cls-1" d="M794.88,540,972.44,717.67a60.19,60.19,0,0,1,0,84.92L802.65,972.38a60,60,0,0,1-84.86,0L540.22,794.7,362.72,972.38a60,60,0,0,1-84.86,0L108.07,802.59c-23.46-23.49-24.39-60.56-.93-84L285.63,540,108.1,362.36a60,60,0,0,1,0-84.92L277.89,107.62a60,60,0,0,1,84.86,0l177.5,177.59L717.82,107.62a60,60,0,0,1,84.86,0L972.47,277.44a60.19,60.19,0,0,1,0,84.92L794.88,540ZM908.79,298.68,781.44,171.3a30,30,0,0,0-42.45,0L582.64,327.66a60,60,0,0,1-84.86,0L341.51,171.3a29.94,29.94,0,0,0-42.44,0L171.72,298.68a30,30,0,0,0,0,42.44L328.05,497.57h0a59.92,59.92,0,0,1,0,84.86h0L171.72,738.88a30.08,30.08,0,0,0,0,42.47L299.1,908.7a30,30,0,0,0,42.44,0L497.81,752.25a60.08,60.08,0,0,1,84.86,0L739,908.7a30,30,0,0,0,42.45,0L908.82,781.35a30.08,30.08,0,0,0,0-42.47L752.46,582.43h0a60,60,0,0,1,0-84.86h0L908.82,341.12a30.07,30.07,0,0,0,0-42.44Z"/><path class="cls-2" d="M811.08,271a1.68,1.68,0,0,1,2.06,2.06l-18.52,69.12L776.1,411.3a1.68,1.68,0,0,1-2.81.76l-50.6-50.6-50.6-50.6a1.68,1.68,0,0,1,.75-2.82L742,289.52Z"/><circle class="cls-3" cx="744.23" cy="741.95" r="70.8"/></g></svg>