<svg xmlns="http://www.w3.org/2000/svg" xmlns:xlink="http://www.w3.org/1999/xlink" viewBox="0 0 1080 360"><defs><style>.cls-1{fill:#fff;}.cls-2,.cls-3{fill-rule:evenodd;}.cls-2{fill:url(#New_Gradient_Swatch_1);}.cls-3,.cls-4{fill:none;stroke:#fff;stroke-miterlimit:10;stroke-width:6px;}</style><linearGradient id="New_Gradient_Swatch_1" x1="70" y1="211.16" x2="287.54" y2="211.16" gradientUnits="userSpaceOnUse"><stop offset="0.01" stop-color="#fbb03b"/><stop offset="0.09" stop-color="#fa9e48"/><stop offset="0.24" stop-color="#f97069"/><stop offset="0.37" stop-color="#f84787"/><stop offset="0.69" stop-color="#f61667"/><stop offset="1" stop-color="#d10851"/></linearGradient></defs><g id="iso-grad1-text-white"><path class="cls-1" d="M388.75,155.91,396.17,170c12.6-11.11,29.27-18.53,45.58-18.53,43,0,78.2,37.81,78.2,84.87v79.31H474.73V236.33c0-23-16.3-43.36-38.54-43.36s-38.54,20.38-38.54,43.36v79.31H351V155.91Zm242,111.18,34.83,23.35a83.68,83.68,0,0,1-64.11,29.65,84.87,84.87,0,1,1,84.87-84.87,70,70,0,0,1-1.49,15.2H565.57A47.1,47.1,0,0,0,574.83,266c7.79,8.52,17.79,13,28.54,13,10,0,20-4.45,27.43-11.86Zm-66-44.84h76.71a43.83,43.83,0,0,0-10-18.16,38.3,38.3,0,0,0-28.17-12.6c-10.75,0-20.75,4.45-28.54,12.6A54.38,54.38,0,0,0,564.83,222.25Zm295,93.39H799.09l-53.37-64.85L735,261.9v53.74H683.09V39.91H735V207.42l47.44-51.51h63.37l-64.85,66.71ZM1010,155.91v79.31c0,47.07-40.77,84.87-83.76,84.87-43.36,0-83.75-37.8-83.75-84.87V155.91h47.43v78.2a47,47,0,0,0,10,28.91c7.41,7.78,17.05,12.23,26.31,12.23s18.9-4.45,26-12.23a45.1,45.1,0,0,0,10.37-28.91v-78.2Z"/><path class="cls-2" d="M240.38,211.16,283.3,254.1a14.57,14.57,0,0,1,0,20.53l-41,41a14.5,14.5,0,0,1-20.52,0l-42.92-42.95-42.9,42.95a14.49,14.49,0,0,1-20.51,0l-41-41a14.25,14.25,0,0,1-.23-20.31l43.15-43.16L74.37,168.22a14.5,14.5,0,0,1,0-20.52l41-41a14.5,14.5,0,0,1,20.52,0l42.9,42.92,42.92-42.92a14.49,14.49,0,0,1,20.51,0l41,41a14.54,14.54,0,0,1,0,20.52l-42.92,42.94Zm27.53-58.33L237.13,122a7.24,7.24,0,0,0-10.26,0l-37.79,37.79a14.5,14.5,0,0,1-20.52,0L130.79,122a7.24,7.24,0,0,0-10.26,0L89.75,152.83a7.28,7.28,0,0,0,0,10.26l37.79,37.81h0a14.49,14.49,0,0,1,0,20.52h0L89.75,259.23a7.29,7.29,0,0,0,0,10.27l30.79,30.78a7.26,7.26,0,0,0,10.26,0l37.77-37.82a14.53,14.53,0,0,1,20.51,0l37.8,37.82a7.26,7.26,0,0,0,10.26,0l30.78-30.78a7.29,7.29,0,0,0,0-10.27l-37.8-37.81h0a14.52,14.52,0,0,1,0-20.52h0l37.8-37.81a7.27,7.27,0,0,0,0-10.26Z"/><path class="cls-3" d="M244.29,146.14a.41.41,0,0,1,.5.5l-4.47,16.71-4.48,16.7a.41.41,0,0,1-.68.19L222.93,168,210.7,155.77a.41.41,0,0,1,.18-.68l16.71-4.47Z"/><circle class="cls-4" cx="228.13" cy="259.97" r="17.11"/></g></svg>