<svg xmlns="http://www.w3.org/2000/svg" viewBox="0 0 1080 360"><defs><style>.cls-1{fill:#f61667;}.cls-2{fill:#fff;}.cls-2,.cls-3{fill-rule:evenodd;}.cls-3,.cls-4{fill:none;stroke:#fff;stroke-miterlimit:10;stroke-width:6px;}</style></defs><g id="iso-white-color-text-primary"><path class="cls-1" d="M392.77,156.07l7.37,14c12.52-11.05,29.08-18.41,45.29-18.41,42.71,0,77.69,37.56,77.69,84.32v78.79H478.2V236c0-22.83-16.2-43.08-38.3-43.08S401.61,213.14,401.61,236v78.79h-46.4V156.07ZM633.25,266.53l34.61,23.2a83.16,83.16,0,0,1-63.7,29.45,84.32,84.32,0,1,1,84.32-84.32A70.28,70.28,0,0,1,687,250H568.44a46.6,46.6,0,0,0,9.21,15.46c7.73,8.47,17.67,12.89,28.35,12.89,9.94,0,19.88-4.42,27.25-11.78ZM567.71,222h76.22a43.71,43.71,0,0,0-9.94-18,38.07,38.07,0,0,0-28-12.52,38.83,38.83,0,0,0-28.35,12.52A54,54,0,0,0,567.71,222Zm293.13,92.78H800.45l-53-64.43-10.68,11v53.39H685.2V40.82h51.55V207.25l47.13-51.18h63l-64.44,66.27ZM1010,156.07v78.79c0,46.77-40.5,84.32-83.22,84.32-43.08,0-83.21-37.55-83.21-84.32V156.07H890.7v77.69a46.71,46.71,0,0,0,9.94,28.72c7.37,7.73,16.94,12.15,26.14,12.15s18.78-4.42,25.78-12.15a44.81,44.81,0,0,0,10.31-28.72V156.07Z"/><path class="cls-2" d="M239.28,210.73l42.64,42.66a14.47,14.47,0,0,1,0,20.4l-40.78,40.77a14.39,14.39,0,0,1-20.38,0l-42.64-42.67-42.63,42.67a14.39,14.39,0,0,1-20.38,0L74.34,273.79a14.15,14.15,0,0,1-.22-20.18L117,210.73,74.35,168.07a14.41,14.41,0,0,1,0-20.4l40.77-40.78a14.41,14.41,0,0,1,20.38,0l42.63,42.65,42.64-42.65a14.41,14.41,0,0,1,20.38,0l40.77,40.78a14.45,14.45,0,0,1,0,20.4l-42.64,42.66Zm27.35-58-30.58-30.58a7.19,7.19,0,0,0-10.2,0l-37.54,37.54a14.39,14.39,0,0,1-20.38,0L130.4,122.19a7.18,7.18,0,0,0-10.19,0L89.63,152.77a7.22,7.22,0,0,0,0,10.2l37.54,37.57h0a14.39,14.39,0,0,1,0,20.38h0L89.63,258.49a7.22,7.22,0,0,0,0,10.2l30.58,30.58a7.21,7.21,0,0,0,10.2,0l37.52-37.57a14.42,14.42,0,0,1,20.38,0l37.55,37.57a7.21,7.21,0,0,0,10.2,0l30.58-30.58a7.22,7.22,0,0,0,0-10.2l-37.55-37.57h0a14.41,14.41,0,0,1,0-20.38h0L266.64,163a7.23,7.23,0,0,0,0-10.2Z"/><path class="cls-3" d="M243.17,146.13a.4.4,0,0,1,.49.49l-4.45,16.6-4.44,16.6a.41.41,0,0,1-.68.18l-12.15-12.15L209.79,155.7A.41.41,0,0,1,210,155l16.6-4.44Z"/><circle class="cls-4" cx="227.11" cy="259.22" r="17"/></g></svg>